#!OML:ASF F:\VICON\USERDATA\INSTALL\rory3\rory3.ASF
:FULLY-SPECIFIED
:DEGREES
48
root 0.621169 17.7141 -11.0866 5.69745 -8.79159 -6.86783
lowerback 17.5502 0.993806 6.56719
upperback 1.2654 2.77063 2.09316
thorax -8.28125 1.12466 -2.12963
lowerneck -2.96411 1.16065 1.44698
upperneck -12.2945 1.23844 -3.28975
head -3.41834 0.660246 -1.35285
rclavicle 2.62893e-014 1.63003e-014
rhumerus -26.217 14.8812 -86.9509
rradius 108.027
rwrist -1.0736
rhand -43.5491 37.6373
rfingers 7.12502
rthumb -16.3871 8.30956
lclavicle 2.62893e-014 1.63003e-014
lhumerus -55.1102 -11.2797 97.8123
lradius 103.512
lwrist 34.4972
lhand -37.6387 11.7715
lfingers 7.12502
lthumb -10.6908 41.4795
rfemur -1.17815 3.92989 31.9812
rtibia 33.071
rfoot -9.53457 -2.50589
rtoes -19.111
lfemur -42.3965 10.117 -9.67275
ltibia 106.056
lfoot 12.3744 -7.87735
ltoes -9.36219
49
root 0.632922 17.8287 -10.5417 5.46062 -8.52396 -7.02065
lowerback 17.7862 1.11945 6.94208
upperback 1.21366 3.02599 1.9987
thorax -8.42392 1.22478 -2.51141
lowerneck -3.72439 1.01518 0.983848
upperneck -11.3058 1.13053 -2.52746
head -2.94242 0.594116 -0.998572
rclavicle 2.91716e-014 -1.19271e-015
rhumerus -26.0208 15.401 -86.8461
rradius 109.097
rwrist -1.11154
rhand -43.4066 36.7576
rfingers 7.12502
rthumb -16.2499 7.41858
lclavicle 2.91716e-014 -1.19271e-015
lhumerus -56.1453 -10.9751 97.6389
lradius 103.629
lwrist 33.4615
lhand -38.1604 22.8994
lfingers 7.12502
lthumb -11.1939 52.5808
rfemur 1.89457 4.36675 31.954
rtibia 30.5658
rfoot -6.44525 -1.77913
rtoes -19.5513
lfemur -43.57 8.67198 -9.67099
ltibia 103.062
lfoot 12.5673 -8.2436
ltoes -9.31331
50
root 0.646316 17.9527 -9.96198 5.46996 -8.12211 -7.24057
lowerback 17.5086 1.44355 7.82246
upperback 0.535811 3.60708 1.52239
thorax -8.87902 1.4255 -3.66049
lowerneck -1.82121 0.51796 1.55783
upperneck -11.2562 0.535346 -1.95226
head -3.28648 0.267847 -0.916243
rclavicle -4.05024e-015 -6.26172e-015
rhumerus -27.5787 14.7571 -87.4845
rradius 110.169
rwrist -1.19015
rhand -43.9395 39.0275
rfingers 7.12502
rthumb -16.763 9.73115
lclavicle -4.05024e-015 -6.26172e-015
lhumerus -58.6311 -11.7085 97.4121
lradius 103.891
lwrist 32.4076
lhand -37.0875 25.2849
lfingers 7.12502
lthumb -10.159 55.0197
rfemur 4.87649 4.71938 31.9863
rtibia 27.6678
rfoot -2.61942 -1.20792
rtoes -19.8069
lfemur -44.6918 6.97838 -9.56522
ltibia 99.5801
lfoot 12.8445 -8.50832
ltoes -6.15412
51
root 0.660189 18.0699 -9.3801 5.59655 -7.56542 -7.20993
lowerback 16.9433 1.5893 8.19022
upperback 0.340344 3.80474 1.24517
thorax -8.71229 1.50349 -4.18905
lowerneck -1.65688 0.251291 1.60175
upperneck -11.1333 0.233061 -1.3986
head -3.27946 0.0985301 -0.736272
rclavicle -1.85118e-015 5.65045e-014
rhumerus -27.7378 14.8944 -87.5551
rradius 110.765
rwrist -1.96477
rhand -43.9614 40.9538
rfingers 7.12502
rthumb -16.7841 11.6592
lclavicle -1.85118e-015 5.65045e-014
lhumerus -59.6619 -11.6332 97.1224
lradius 103.798
lwrist 31.0163
lhand -35.1729 21.3821
lfingers 7.12502
lthumb -8.31167 51.1986
rfemur 7.73432 5.0313 31.7782
rtibia 24.4532
rfoot 2.05572 -0.943515
rtoes -19.1924
lfemur -45.6892 5.14826 -9.68503
ltibia 95.8586
lfoot 9.17085 -8.74711
ltoes -15.4843
52
root 0.672237 18.1803 -8.79852 5.54106 -7.04621 -7.08004
lowerback 16.432 1.63423 8.34302
upperback 0.452311 3.82111 1.09998
thorax -8.27947 1.52813 -4.40426
lowerneck -2.31922 0.161973 1.13404
upperneck -10.8309 0.160214 -0.749232
head -3.05171 0.0592487 -0.439012
rclavicle 8.77137e-015 2.3556e-014
rhumerus -27.4845 15.5382 -87.4104
rradius 111.239
rwrist -2.57057
rhand -43.379 40.341
rfingers 7.12502
rthumb -16.2233 10.9998
lclavicle 8.77137e-015 2.3556e-014
lhumerus -60.1005 -11.0249 96.7682
lradius 103.672
lwrist 29.5351
lhand -33.8636 18.8976
lfingers 7.12502
lthumb -7.04792 48.7603
rfemur 10.8501 5.63627 31.6146
rtibia 20.8792
rfoot 6.93222 -1.41303
rtoes -17.9806
lfemur -46.2717 3.37285 -9.78404
ltibia 91.8619
lfoot 8.12323 -9.03012
ltoes -15.8448
